<svg width="176" height="36" viewBox="0 0 176 36" fill="none" xmlns="http://www.w3.org/2000/svg">
<g clip-path="url(#clip0_2279_1792)">
<path d="M0 24.7362V11.2002H6.11127C7.93815 11.2002 9.16977 11.5199 9.80612 12.1592C10.4425 12.7986 10.7607 14.0255 10.7607 15.8399C10.7607 17.6524 10.4568 18.8562 9.84912 19.4514C9.24143 20.0466 8.01555 20.3442 6.17147 20.3442H5.57811H2.5798V24.7218L0 24.7362ZM2.5798 18.1986H5.47779C6.6387 18.1986 7.37824 18.0632 7.69068 17.7954C8.00313 17.5276 8.16078 16.894 8.16078 15.8946C8.16078 14.7426 8.02892 14.0399 7.76808 13.7663C7.50723 13.4927 6.83075 13.3544 5.7329 13.3544H2.5798V18.1986Z" fill="white"/>
<path d="M21.5415 22.1413H15.7254L14.8856 24.7333H12.1768L16.6628 11.1973H20.5038L25.0586 24.7333H22.4014L21.5415 22.1413ZM20.9481 20.2376L18.632 13.1902L16.3388 20.2376H20.9481Z" fill="white"/>
<path d="M27.6387 24.7362V11.2002H34.2774C35.9342 11.2002 37.075 11.4882 37.6999 12.0642C38.3248 12.6402 38.6382 13.6818 38.6401 15.189C38.6401 16.558 38.4834 17.494 38.17 17.997C37.8547 18.4981 37.2098 18.8466 36.238 19.0367V19.126C37.7381 19.22 38.4872 20.0965 38.4853 21.7554V24.7362H35.9199V22.2652C35.9199 20.8674 35.2376 20.1685 33.8732 20.1685H30.2041V24.7362H27.6387ZM30.2185 18.0085H33.8789C34.7561 18.0085 35.338 17.8511 35.6246 17.5362C35.9113 17.2213 36.0546 16.5916 36.0546 15.6469C36.0546 14.6821 35.9313 14.0572 35.6848 13.7778C35.4383 13.4984 34.8937 13.3544 34.0567 13.3544H30.2041L30.2185 18.0085Z" fill="white"/>
<path d="M47.0588 13.493V24.725H44.4933V13.493H40.6035V11.189H51.0861V13.493H47.0588Z" fill="white"/>
<path d="M63.3969 15.1374H60.8974C60.8855 15.0418 60.8788 14.9457 60.8773 14.8494C60.8171 14.089 60.6509 13.6081 60.3728 13.4094C60.0948 13.2106 59.4469 13.1214 58.4208 13.1214C57.2111 13.1214 56.4209 13.2337 56.0502 13.4583C55.6776 13.683 55.4941 14.1582 55.4941 14.8782C55.4941 15.7422 55.6432 16.2462 55.947 16.419C56.2509 16.5918 57.2484 16.7242 58.9453 16.8164C60.9518 16.9297 62.2494 17.2177 62.838 17.6804C63.4265 18.1431 63.7208 19.1031 63.7208 20.5604C63.7208 22.3614 63.3759 23.5249 62.686 24.051C61.9962 24.577 60.4674 24.8401 58.0997 24.8401C55.9785 24.8401 54.5711 24.5818 53.8774 24.0654C53.1838 23.5489 52.8369 22.5025 52.8369 20.9262V20.4279H55.3221V20.7159C55.3221 21.6663 55.4865 22.2423 55.8152 22.4439C56.1448 22.657 57.042 22.7636 58.5125 22.7636C59.6591 22.7636 60.3891 22.6417 60.7025 22.3978C61.0178 22.153 61.1783 21.5857 61.1783 20.6986C61.1783 20.042 61.0579 19.6071 60.8171 19.394C60.5763 19.1809 60.0632 19.0618 59.2778 19.0369L57.8675 18.9447C55.7349 18.8218 54.3733 18.5242 53.7828 18.0519C53.1924 17.5796 52.8962 16.5697 52.8942 15.0222C52.8942 13.442 53.2506 12.386 53.9634 11.8542C54.6762 11.3223 56.1028 11.0593 58.243 11.065C60.2687 11.065 61.634 11.307 62.3392 11.7908C63.0443 12.2746 63.396 13.2164 63.394 14.6161L63.3969 15.1374Z" fill="white"/>
<path d="M71.2975 12.6117V24.7365H69.784V12.6117H65.3926V11.1919H75.6745V12.6117H71.2975Z" fill="#9BCDFF"/>
<path d="M78.0361 24.7362V11.2002H84.4513C85.8998 11.2002 86.9202 11.4882 87.5126 12.0642C88.105 12.6402 88.4003 13.6386 88.3984 15.0594C88.3984 16.3122 88.2378 17.182 87.9168 17.6744C87.5958 18.1669 86.9795 18.4866 86.0737 18.6335V18.6623C87.4993 18.7679 88.2111 19.6424 88.2092 21.286V24.742H86.6928V21.6229C86.6928 20.0428 86.0116 19.2527 84.649 19.2527H79.5496V24.7247L78.0361 24.7362ZM79.5496 17.9567H83.9468C85.1077 17.9567 85.8988 17.7781 86.3202 17.4268C86.7416 17.0754 86.9537 16.4072 86.9537 15.4309C86.9537 14.2098 86.797 13.414 86.4836 13.0434C86.1702 12.6728 85.5013 12.4885 84.4771 12.4904H79.5496V17.9567Z" fill="#9BCDFF"/>
<path d="M99.9277 21.865H93.1027L92.065 24.745H90.4541L95.3959 11.209H97.5285L102.565 24.745H100.977L99.9277 21.865ZM99.4834 20.713L96.4908 12.4445L93.5384 20.7072L99.4834 20.713Z" fill="#9BCDFF"/>
<path d="M104.964 24.7362V11.2002H111.201C113.133 11.2002 114.442 11.6274 115.128 12.4818C115.814 13.3362 116.156 14.9682 116.154 17.3778C116.154 20.3135 115.85 22.2748 115.24 23.2616C114.63 24.2485 113.412 24.741 111.585 24.7391L104.964 24.7362ZM106.48 23.4402H110.874C112.491 23.4402 113.537 23.1148 114.005 22.4696C114.472 21.8245 114.71 20.3759 114.71 18.1496C114.71 15.694 114.506 14.1378 114.099 13.4812C113.692 12.8245 112.719 12.4981 111.181 12.502H106.48V23.4402Z" fill="#9BCDFF"/>
<path d="M120.153 12.4904V17.0984H127.007V18.3973H120.153V23.4402H127.299V24.7362H118.64V11.2002H127.299V12.4991L120.153 12.4904Z" fill="#9BCDFF"/>
<path d="M130.274 24.7362V11.2002H136.69C138.138 11.2002 139.158 11.4882 139.748 12.0642C140.339 12.6402 140.635 13.6386 140.637 15.0594C140.637 16.3122 140.476 17.182 140.155 17.6744C139.834 18.1669 139.218 18.4866 138.312 18.6335V18.6623C139.738 18.7679 140.449 19.6424 140.447 21.286V24.742H138.934V21.6229C138.934 20.0428 138.252 19.2527 136.887 19.2527H131.788V24.7247L130.274 24.7362ZM131.788 17.9567H136.185C137.332 17.9567 138.137 17.7781 138.558 17.4268C138.98 17.0754 139.192 16.4072 139.192 15.4309C139.192 14.2098 139.035 13.414 138.722 13.0434C138.408 12.6728 137.74 12.4885 136.715 12.4904H131.788V17.9567Z" fill="#9BCDFF"/>
<path d="M161.92 25.1223C161.917 25.1223 161.908 25.1194 161.906 25.1194C161.906 25.1166 161.908 25.105 161.908 25.105C161.906 25.0993 161.888 25.0734 161.883 25.0705C161.88 25.0647 161.88 25.0446 161.877 25.0359C161.874 25.033 161.868 25.0273 161.865 25.0186C161.863 25.0186 161.851 25.0186 161.851 25.0158C161.845 25.0129 161.84 25.0014 161.84 24.9985C161.837 24.9956 161.831 24.9812 161.828 24.9812C161.825 24.9783 161.817 24.9812 161.814 24.9754C161.811 24.9754 161.791 24.9582 161.788 24.9553C161.785 24.9524 161.779 24.938 161.777 24.938C161.478 24.7364 160.793 24.6846 160.034 24.6471C159.962 24.3102 159.879 23.9674 159.767 23.6506C160.409 23.2042 160.965 22.7924 161.086 22.4583C161.089 22.4554 161.109 22.4238 161.109 22.418C161.109 22.4151 161.094 22.4151 161.094 22.4151L161.097 22.4007C161.1 22.3863 161.103 22.3719 161.106 22.3546C161.106 22.3518 161.109 22.3431 161.109 22.3402C161.109 22.3316 161.114 22.3143 161.114 22.3114C161.114 22.3057 161.103 22.2999 161.103 22.2913C161.103 22.2913 161.109 22.2798 161.106 22.2769C161.103 22.2711 161.1 22.2481 161.097 22.2423C161.097 22.2394 161.086 22.2279 161.086 22.225C161.083 22.2193 161.08 22.1962 161.077 22.1934C161.074 22.1905 161.054 22.1818 161.051 22.1732C161.048 22.1732 161.043 22.1588 161.04 22.1559C161.04 22.153 161.028 22.1415 161.028 22.1386C161.005 22.1214 160.968 22.107 160.945 22.0897C160.945 22.0868 160.937 22.0753 160.934 22.0753C160.925 22.0724 160.917 22.0551 160.908 22.0522C160.894 22.0494 160.848 22.0436 160.836 22.0407C160.481 21.9601 159.845 22.1156 159.139 22.3114C158.976 22.0321 158.795 21.7642 158.603 21.5137C159.068 20.9002 159.458 20.33 159.486 19.9729C159.486 19.97 159.489 19.9614 159.489 19.9585C159.489 19.947 159.495 19.9354 159.495 19.9268C159.495 19.9239 159.498 19.9153 159.498 19.9153C159.498 19.9095 159.506 19.8922 159.503 19.8836C159.503 19.8807 159.495 19.8721 159.495 19.8692C159.489 19.8577 159.483 19.8375 159.483 19.8346C159.483 19.8318 159.475 19.8087 159.475 19.803C159.472 19.7972 159.463 19.7914 159.463 19.7828C159.46 19.777 159.458 19.7598 159.452 19.7511C159.452 19.7482 159.44 19.7367 159.44 19.7338C159.44 19.7338 159.429 19.731 159.426 19.731C159.426 19.7281 159.429 19.7166 159.429 19.7166C159.426 19.7166 159.42 19.7194 159.415 19.7137C159.409 19.7108 159.38 19.6935 159.372 19.6906C159.369 19.6878 159.36 19.6906 159.357 19.6878C159.354 19.6849 159.349 19.6734 159.346 19.6705C159.34 19.6676 159.326 19.6503 159.317 19.6474C159.317 19.6474 159.306 19.659 159.303 19.6618C159.3 19.6618 159.291 19.659 159.286 19.659C159.277 19.6561 159.268 19.6417 159.26 19.6388C159.245 19.6359 159.214 19.6474 159.2 19.6446C159.197 19.6446 159.185 19.6388 159.185 19.6417C159.165 19.6417 159.139 19.6446 159.122 19.6446C158.758 19.6849 158.193 20.0276 157.592 20.4222C157.342 20.2004 157.076 19.993 156.803 19.8058C157.05 19.1118 157.233 18.4666 157.176 18.1066C157.176 18.1038 157.182 18.0922 157.182 18.0922C157.179 18.0894 157.184 18.0807 157.182 18.0778C157.176 18.0634 157.164 18.0404 157.162 18.026C157.156 18.0174 157.139 18.0001 157.136 17.9914C157.13 17.9799 157.136 17.9569 157.13 17.9425C157.127 17.9367 157.121 17.931 157.119 17.9252C157.116 17.9252 157.107 17.9079 157.107 17.905C157.104 17.9022 157.096 17.905 157.09 17.9022C157.087 17.8993 157.084 17.8878 157.078 17.8878C157.078 17.8849 157.055 17.8676 157.055 17.8647C157.053 17.8618 157.041 17.8647 157.038 17.8618C157.035 17.859 157.03 17.8446 157.027 17.8446C157.024 17.8388 157.01 17.8244 157.001 17.8244C156.99 17.8215 156.97 17.8186 156.961 17.8158C156.952 17.8158 156.921 17.81 156.912 17.81C156.906 17.81 156.906 17.8042 156.898 17.8042C156.889 17.8042 156.872 17.8158 156.866 17.8158C156.861 17.8158 156.855 17.8129 156.849 17.8129C156.841 17.8129 156.82 17.8186 156.815 17.8215C156.798 17.8273 156.763 17.8359 156.749 17.8388C156.726 17.8474 156.694 17.859 156.669 17.8705C156.342 18.0433 155.929 18.5358 155.499 19.0772C155.207 18.9476 154.906 18.8382 154.596 18.7489C154.596 18.746 154.599 18.7316 154.596 18.7316C154.619 18.0087 154.608 17.3492 154.453 17.0209C154.444 17.0007 154.418 16.9719 154.404 16.9518C154.401 16.946 154.393 16.9374 154.393 16.9345C154.39 16.9316 154.381 16.9345 154.378 16.9316C154.375 16.9258 154.355 16.9028 154.355 16.8942C154.352 16.8913 154.344 16.8769 154.344 16.8769C154.341 16.874 154.335 16.8596 154.332 16.8567C154.327 16.8567 154.307 16.8538 154.301 16.851C154.298 16.8481 154.292 16.8394 154.289 16.8337C154.287 16.8308 154.264 16.8308 154.261 16.8279C154.255 16.8279 154.246 16.825 154.246 16.825C154.235 16.8222 154.223 16.8193 154.218 16.8193C154.215 16.8193 154.203 16.8193 154.203 16.8193C154.192 16.8164 154.169 16.8106 154.158 16.8106L154.146 16.8078C154.14 16.8106 154.123 16.802 154.117 16.802C154.112 16.8049 154.1 16.825 154.094 16.8279C154.092 16.8279 154.072 16.8222 154.063 16.8222C154.063 16.8222 154.054 16.8222 154.051 16.8222C154.049 16.8222 154.049 16.8394 154.049 16.8394C154.046 16.8394 154.037 16.8337 154.037 16.8366C154 16.8567 153.96 16.8826 153.931 16.9086C153.659 17.1505 153.401 17.7812 153.137 18.4666C152.813 18.435 152.481 18.4177 152.148 18.4263C151.939 17.7322 151.712 17.0929 151.46 16.825C151.454 16.825 151.446 16.825 151.443 16.825C151.432 16.8135 151.406 16.779 151.394 16.7674C151.389 16.7646 151.371 16.7617 151.366 16.7617C151.363 16.7588 151.354 16.7473 151.354 16.7444C151.348 16.7444 151.328 16.7415 151.325 16.7386C151.32 16.7358 151.305 16.7185 151.3 16.7156C151.288 16.7156 151.265 16.7098 151.254 16.707C151.251 16.7098 151.225 16.7156 151.219 16.7156L151.208 16.7127C151.199 16.7127 151.182 16.707 151.176 16.707C151.174 16.707 151.151 16.7156 151.145 16.7156C151.139 16.7156 151.122 16.7098 151.113 16.7098C151.11 16.7127 151.096 16.7329 151.093 16.7358C151.085 16.7415 151.065 16.7415 151.059 16.7444C151.053 16.7502 151.045 16.7703 151.036 16.7732C151.004 16.7991 150.97 16.8337 150.941 16.8769C150.749 17.185 150.703 17.8561 150.669 18.5991C150.351 18.6711 150.027 18.7575 149.726 18.8641C149.313 18.2593 148.921 17.7294 148.594 17.5623C148.591 17.5566 148.568 17.5479 148.556 17.5393C148.551 17.5364 148.522 17.5191 148.513 17.5162C148.502 17.5134 148.476 17.5105 148.468 17.5076C148.462 17.5076 148.439 17.5162 148.433 17.5191C148.416 17.5162 148.387 17.5191 148.373 17.5191C148.362 17.5191 148.35 17.5134 148.344 17.5134C148.341 17.5134 148.341 17.5278 148.341 17.5278C148.339 17.5278 148.319 17.522 148.313 17.522C148.31 17.5249 148.298 17.5306 148.293 17.5335C148.29 17.5364 148.281 17.5422 148.276 17.545C148.273 17.5479 148.261 17.5566 148.258 17.5594C148.255 17.5594 148.244 17.5566 148.244 17.5566C148.238 17.5623 148.227 17.5767 148.221 17.5825C148.21 17.594 148.192 17.6113 148.181 17.6199C148.178 17.6257 148.181 17.6343 148.178 17.6372C148.172 17.643 148.161 17.6545 148.158 17.6631C148.144 17.6948 148.129 17.7409 148.118 17.7783C148.038 18.1354 148.181 18.7892 148.37 19.4919C148.373 19.4948 148.382 19.4948 148.382 19.4977C148.382 19.5006 148.382 19.5092 148.382 19.5092C148.092 19.6791 147.814 19.8577 147.553 20.0593C147.553 20.0593 147.542 20.0564 147.539 20.0564C146.954 19.6071 146.415 19.2241 146.054 19.1636C146.014 19.1578 145.965 19.1521 145.934 19.155C145.931 19.155 145.919 19.1521 145.919 19.1521C145.914 19.155 145.905 19.1751 145.899 19.178C145.894 19.178 145.873 19.1722 145.868 19.1722C145.868 19.1722 145.853 19.1838 145.851 19.1838C145.851 19.1866 145.839 19.1809 145.836 19.1809C145.833 19.1838 145.822 19.1924 145.819 19.1924C145.81 19.1982 145.79 19.2126 145.785 19.2154C145.782 19.2183 145.785 19.227 145.782 19.2298C145.782 19.2298 145.77 19.227 145.767 19.227C145.765 19.2298 145.753 19.2356 145.75 19.2385C145.747 19.2414 145.733 19.2586 145.73 19.2615C145.727 19.2644 145.727 19.2759 145.727 19.2759C145.724 19.2817 145.713 19.2817 145.71 19.2874C145.704 19.299 145.707 19.3191 145.701 19.3306C145.699 19.3364 145.684 19.3508 145.681 19.3566C145.681 19.3566 145.679 19.371 145.679 19.3738H145.693C145.69 19.394 145.679 19.4257 145.679 19.4487C145.673 19.8058 146.031 20.4164 146.458 21.0673C146.246 21.3034 146.04 21.5713 145.862 21.8305C145.862 21.8334 145.848 21.8276 145.848 21.8276C145.16 21.5828 144.546 21.387 144.188 21.4417C144.154 21.4474 144.093 21.4532 144.062 21.4618C144.056 21.4676 144.03 21.4849 144.025 21.4878C144.019 21.4906 144.01 21.4964 144.01 21.4993C144.005 21.5022 143.993 21.5108 143.99 21.5108C143.99 21.5137 143.99 21.5252 143.987 21.5252C143.984 21.5281 143.97 21.5338 143.97 21.5367C143.959 21.5511 143.939 21.5655 143.93 21.577C143.93 21.5799 143.93 21.5914 143.927 21.5914C143.924 21.5943 143.924 21.6058 143.921 21.6058C143.919 21.6145 143.904 21.6289 143.901 21.6346C143.901 21.6375 143.887 21.6433 143.884 21.6462C143.884 21.649 143.89 21.6721 143.893 21.6778C143.89 21.6836 143.873 21.7009 143.87 21.7038C143.873 21.7066 143.884 21.7182 143.884 21.721C143.884 21.7297 143.878 21.747 143.878 21.7527C143.878 21.7585 143.884 21.7786 143.887 21.7844C143.89 21.7959 143.904 21.8218 143.907 21.8362C143.913 21.8506 143.919 21.8852 143.927 21.8996C144.073 22.2366 144.575 22.6801 145.145 23.1409C145.011 23.4462 144.876 23.7457 144.781 24.074C144.022 24.0596 143.328 24.0855 143.024 24.2698C143.018 24.2727 142.993 24.29 142.99 24.2929C142.987 24.2929 142.975 24.3015 142.973 24.3044C142.97 24.3073 142.97 24.3188 142.967 24.3188C142.967 24.3217 142.955 24.3159 142.955 24.3159C142.938 24.3303 142.924 24.3649 142.91 24.385C142.91 24.3879 142.895 24.3937 142.892 24.3966C142.892 24.4023 142.872 24.4311 142.869 24.4398C142.869 24.4426 142.881 24.4513 142.881 24.457C142.881 24.4628 142.875 24.4974 142.872 24.5031C142.875 24.506 142.867 24.5262 142.867 24.5319C142.869 24.5406 142.878 24.5578 142.878 24.5665C142.878 24.5694 142.872 24.5751 142.875 24.5809C142.878 24.5866 142.895 24.6126 142.898 24.6154C142.904 24.6298 142.898 24.65 142.904 24.6644C142.915 24.6817 142.93 24.7018 142.938 24.7162C143.153 25.0042 143.798 25.275 144.512 25.5486C144.512 25.5514 144.509 25.5601 144.509 25.563C144.48 25.8769 144.455 26.1908 144.466 26.5105C143.692 26.7409 143.013 26.9914 142.812 27.2823C142.803 27.2967 142.795 27.3169 142.789 27.3255C142.786 27.3342 142.786 27.3486 142.783 27.3543C142.781 27.3601 142.766 27.3774 142.76 27.3802C142.763 27.386 142.769 27.409 142.769 27.4119C142.766 27.4206 142.752 27.4321 142.749 27.4378C142.749 27.4436 142.755 27.4638 142.755 27.4695C142.755 27.4695 142.752 27.4839 142.752 27.4868C142.752 27.4868 142.76 27.5012 142.763 27.5041C142.763 27.507 142.772 27.5329 142.772 27.5358C142.775 27.5415 142.778 27.5617 142.781 27.5674C142.783 27.5732 142.803 27.5818 142.806 27.5876C142.809 27.5934 142.812 27.6164 142.815 27.6222C142.818 27.6222 142.829 27.6222 142.832 27.6222C142.835 27.625 142.844 27.6394 142.844 27.6423C142.846 27.6452 142.855 27.6423 142.858 27.6452C142.861 27.6481 142.867 27.6596 142.869 27.6625C142.872 27.6625 142.878 27.6769 142.884 27.6826C142.884 27.6826 142.898 27.6826 142.898 27.6855L142.91 27.6999C143.208 27.9044 143.893 27.9534 144.649 27.9937C144.721 28.3278 144.804 28.6734 144.919 28.9902C144.274 29.4366 143.718 29.8484 143.595 30.1796C143.595 30.1854 143.577 30.2027 143.575 30.2084C143.577 30.2113 143.572 30.2199 143.572 30.2228C143.569 30.243 143.577 30.2689 143.577 30.2862C143.577 30.2919 143.569 30.3092 143.572 30.315C143.572 30.3207 143.58 30.338 143.58 30.3466C143.58 30.3466 143.577 30.3582 143.577 30.361C143.58 30.3639 143.583 30.387 143.586 30.3927C143.583 30.3927 143.598 30.4071 143.598 30.4129C143.6 30.4186 143.603 30.4388 143.606 30.4446C143.606 30.4474 143.629 30.459 143.632 30.4647C143.635 30.4676 143.64 30.4762 143.643 30.482C143.666 30.5022 143.706 30.531 143.741 30.5454C143.744 30.5483 143.749 30.5626 143.752 30.5655C143.758 30.5684 143.775 30.5684 143.781 30.5713C143.795 30.5713 143.827 30.5799 143.841 30.5828C144.194 30.6634 144.844 30.5223 145.55 30.3294C145.713 30.6087 145.891 30.8737 146.086 31.1271C145.621 31.7377 145.234 32.3079 145.206 32.6679C145.203 32.6766 145.197 32.7054 145.197 32.714C145.194 32.714 145.194 32.7255 145.194 32.7284C145.194 32.7342 145.188 32.7514 145.188 32.7601C145.191 32.7687 145.206 32.7831 145.211 32.7946C145.211 32.8004 145.217 32.8234 145.217 32.8292C145.223 32.835 145.226 32.858 145.226 32.8609C145.231 32.8695 145.231 32.8839 145.234 32.8954C145.237 32.8954 145.246 32.9099 145.246 32.9127C145.249 32.9156 145.26 32.9156 145.26 32.9156C145.263 32.9185 145.269 32.93 145.274 32.9358C145.277 32.9358 145.297 32.9386 145.303 32.9415C145.306 32.9415 145.326 32.9588 145.329 32.9617C145.332 32.9646 145.34 32.9761 145.34 32.979C145.349 32.9818 145.366 32.9847 145.372 32.9847L145.386 32.9876C145.389 32.9905 145.409 32.9934 145.415 32.9962C145.418 32.9962 145.426 32.9991 145.429 32.9991C145.441 33.002 145.472 33.0106 145.489 33.0135C145.492 33.0135 145.501 33.0164 145.504 33.0164C145.524 33.0164 145.55 33.0135 145.564 33.0135C145.928 32.9732 146.493 32.6276 147.097 32.2302C147.344 32.4519 147.611 32.6593 147.886 32.8465C147.642 33.5434 147.439 34.1857 147.496 34.5457C147.493 34.5486 147.507 34.5601 147.507 34.5658C147.51 34.5831 147.522 34.6004 147.527 34.6148C147.53 34.6263 147.53 34.6522 147.533 34.6609C147.539 34.6724 147.547 34.6983 147.556 34.7098C147.559 34.7127 147.565 34.7214 147.568 34.7271C147.57 34.73 147.582 34.73 147.582 34.73C147.585 34.7329 147.59 34.7444 147.593 34.7502C147.596 34.753 147.605 34.7646 147.605 34.7674C147.608 34.7703 147.619 34.7703 147.619 34.7703C147.622 34.7732 147.642 34.7876 147.645 34.7905C147.651 34.7934 147.656 34.8049 147.659 34.8106C147.662 34.8135 147.671 34.8135 147.674 34.8135C147.676 34.8164 147.685 34.8164 147.688 34.8164C147.699 34.8222 147.719 34.8395 147.728 34.8423C147.734 34.8423 147.751 34.8452 147.757 34.8481C147.762 34.8452 147.783 34.8394 147.788 34.8394C147.797 34.8366 147.811 34.8452 147.82 34.8423C147.826 34.8423 147.831 34.8452 147.834 34.8452C147.84 34.8423 147.86 34.8366 147.866 34.8366C147.883 34.8308 147.917 34.8222 147.932 34.8164C147.957 34.8078 147.986 34.7991 148.015 34.7876C148.339 34.6119 148.754 34.1194 149.184 33.578C149.482 33.7105 149.786 33.8343 150.101 33.9265C150.081 34.6954 150.099 35.3866 150.282 35.6919C150.282 35.6919 150.291 35.7034 150.296 35.7063C150.296 35.7092 150.305 35.7207 150.308 35.7236C150.311 35.7294 150.311 35.7524 150.314 35.7553C150.316 35.7582 150.339 35.7754 150.342 35.7783C150.345 35.7812 150.354 35.7783 150.357 35.7812C150.362 35.7841 150.377 35.7985 150.38 35.8014C150.382 35.8042 150.394 35.8014 150.394 35.8071C150.397 35.81 150.402 35.8244 150.405 35.8244C150.408 35.8244 150.42 35.8273 150.42 35.8244C150.423 35.8273 150.434 35.8273 150.434 35.8273C150.445 35.8302 150.457 35.8302 150.463 35.833C150.466 35.8359 150.477 35.8359 150.48 35.8359C150.491 35.8417 150.514 35.8446 150.526 35.8474L150.54 35.8503C150.543 35.8503 150.563 35.8417 150.572 35.8417C150.577 35.8359 150.586 35.8273 150.589 35.8273C150.595 35.8273 150.617 35.8215 150.623 35.8186L150.638 35.8215C150.64 35.8215 150.649 35.8244 150.652 35.8244C150.686 35.8042 150.732 35.7639 150.761 35.7351C151.036 35.4961 151.288 34.8769 151.552 34.1943C151.879 34.226 152.208 34.2404 152.541 34.2318C152.75 34.9258 152.965 35.5594 153.217 35.8273C153.217 35.8273 153.232 35.8273 153.232 35.8302C153.237 35.833 153.246 35.833 153.249 35.833C153.255 35.8446 153.272 35.859 153.289 35.8705C153.295 35.8734 153.323 35.8935 153.329 35.8935C153.332 35.8964 153.338 35.9079 153.341 35.9137C153.346 35.9166 153.366 35.9166 153.369 35.9166C153.375 35.9194 153.392 35.9194 153.398 35.9223C153.409 35.9281 153.429 35.9425 153.441 35.9482C153.447 35.9454 153.47 35.9396 153.472 35.9396C153.475 35.9396 153.487 35.9425 153.487 35.9425C153.498 35.9425 153.515 35.9338 153.521 35.931C153.527 35.931 153.544 35.9396 153.55 35.9396C153.556 35.9396 153.578 35.931 153.584 35.931C153.587 35.9281 153.599 35.9194 153.599 35.9194C153.607 35.9137 153.616 35.9079 153.616 35.9079C153.624 35.9022 153.647 35.8849 153.653 35.8849C153.687 35.8561 153.725 35.8071 153.75 35.7639C153.943 35.4558 153.988 34.7991 154.02 34.0561C154.338 33.987 154.662 33.8977 154.963 33.794C155.379 34.3959 155.771 34.9258 156.095 35.0929C156.095 35.0958 156.104 35.0929 156.11 35.0958C156.118 35.1015 156.133 35.113 156.135 35.1159C156.141 35.1188 156.158 35.1188 156.167 35.1217C156.178 35.1274 156.21 35.1476 156.221 35.1476C156.227 35.1476 156.247 35.139 156.253 35.139C156.267 35.139 156.287 35.1361 156.302 35.1361C156.313 35.1332 156.339 35.1303 156.35 35.1274C156.356 35.1274 156.376 35.1361 156.379 35.1332C156.382 35.1303 156.399 35.1102 156.399 35.1073C156.405 35.1044 156.413 35.0986 156.419 35.0958C156.419 35.0929 156.431 35.0986 156.433 35.0986C156.436 35.0986 156.448 35.1015 156.448 35.1015C156.451 35.0986 156.451 35.09 156.451 35.0871C156.465 35.0727 156.479 35.0497 156.491 35.0353C156.494 35.0324 156.505 35.0266 156.508 35.0238C156.511 35.0209 156.511 35.0094 156.511 35.0094C156.528 34.9719 156.557 34.9258 156.565 34.8798C156.646 34.5226 156.485 33.866 156.299 33.1633L156.302 33.1489C156.588 32.979 156.869 32.8004 157.13 32.5988C157.13 32.5988 157.133 32.5844 157.136 32.5844L157.147 32.5902C157.732 33.0394 158.268 33.4369 158.629 33.4974C158.666 33.5031 158.715 33.506 158.75 33.506C158.752 33.5031 158.752 33.4916 158.752 33.4916C158.752 33.4916 158.764 33.4945 158.767 33.4916C158.77 33.4916 158.781 33.483 158.784 33.4801C158.79 33.4801 158.81 33.4714 158.815 33.4714C158.818 33.4714 158.83 33.4743 158.833 33.4743C158.833 33.4715 158.844 33.4628 158.85 33.4599C158.853 33.4599 158.864 33.4628 158.864 33.4628C158.873 33.457 158.879 33.4426 158.887 33.4369C158.89 33.434 158.901 33.4282 158.904 33.4225C158.904 33.4225 158.913 33.4254 158.919 33.4254C158.922 33.4225 158.939 33.3994 158.942 33.3994C158.944 33.3994 158.944 33.3879 158.944 33.385C158.944 33.3822 158.956 33.3879 158.962 33.3879C158.965 33.385 158.965 33.3735 158.965 33.3735C158.965 33.3706 158.967 33.362 158.967 33.3562C158.97 33.3562 158.985 33.3476 158.985 33.3476C158.99 33.3361 158.99 33.3246 158.99 33.3188C158.993 33.313 159.013 33.2814 159.013 33.2756C159.013 33.2727 158.999 33.2727 158.999 33.2727L159.002 33.2583C159.005 33.2411 159.01 33.218 159.01 33.1978C159.013 33.195 159.013 33.1863 159.013 33.1834C159.016 32.8234 158.661 32.2186 158.236 31.5649C158.443 31.3287 158.632 31.0724 158.81 30.8132C158.81 30.8132 158.821 30.8161 158.824 30.8161C159.512 31.0609 160.143 31.2596 160.498 31.2049C160.533 31.1991 160.596 31.1934 160.627 31.1818C160.633 31.179 160.644 31.1588 160.647 31.1559C160.653 31.153 160.676 31.1502 160.679 31.1444C160.684 31.1415 160.699 31.1242 160.702 31.1185C160.702 31.1156 160.702 31.107 160.704 31.1041C160.719 31.0897 160.75 31.0695 160.762 31.0522C160.765 31.0522 160.765 31.0378 160.765 31.0378C160.77 31.0321 160.782 31.0177 160.785 31.0119C160.788 31.009 160.785 30.9975 160.788 30.9975C160.788 30.9946 160.793 30.9745 160.793 30.9687C160.796 30.963 160.796 30.9457 160.796 30.937C160.799 30.9342 160.799 30.9255 160.799 30.9255C160.796 30.9169 160.805 30.8996 160.805 30.8967C160.805 30.891 160.796 30.8708 160.796 30.865C160.793 30.8506 160.785 30.8132 160.779 30.8017C160.773 30.7844 160.765 30.7671 160.759 30.7498C160.619 30.4129 160.114 29.9722 159.541 29.5086C159.675 29.2004 159.81 28.898 159.905 28.5726C160.679 28.5898 161.367 28.5553 161.668 28.3623C161.67 28.3594 161.693 28.3566 161.699 28.3537C161.702 28.3479 161.713 28.345 161.716 28.3422C161.719 28.3422 161.719 28.3278 161.719 28.3278C161.739 28.3105 161.768 28.2759 161.779 28.2615C161.782 28.2586 161.794 28.2356 161.799 28.2356C161.802 28.2298 161.802 28.2126 161.805 28.2039C161.805 28.1982 161.811 28.1809 161.811 28.1751C161.814 28.1694 161.817 28.1492 161.817 28.1434C161.817 28.1406 161.822 28.1204 161.822 28.1146C161.822 28.1089 161.817 28.0887 161.814 28.0801C161.814 28.0743 161.82 28.057 161.82 28.0484C161.817 28.0427 161.797 28.034 161.791 28.0282C161.788 28.0225 161.785 28.0023 161.782 27.9937C161.779 27.9879 161.771 27.9822 161.771 27.9764C161.762 27.962 161.756 27.939 161.748 27.9246C161.533 27.6366 160.891 27.3658 160.174 27.0922L160.177 27.0778C160.206 26.7668 160.214 26.4471 160.206 26.1274C160.977 25.8999 161.662 25.6465 161.86 25.3556C161.865 25.3498 161.877 25.3383 161.88 25.3297C161.88 25.3239 161.897 25.3182 161.897 25.3153C161.903 25.3095 161.903 25.2951 161.903 25.2865C161.906 25.2807 161.911 25.2491 161.914 25.2404C161.914 25.2346 161.92 25.2202 161.92 25.2145C161.923 25.2087 161.923 25.1886 161.926 25.1828C161.926 25.177 161.931 25.1598 161.931 25.154C161.931 25.1511 161.934 25.1396 161.934 25.1396L161.92 25.1367V25.1223ZM154.421 26.7294C154.198 27.89 153.085 28.6446 151.927 28.4199C150.772 28.1953 150.007 27.075 150.233 25.9114C150.457 24.7508 151.586 23.9847 152.741 24.2094C153.825 24.4196 154.562 25.4276 154.461 26.5047C154.458 26.5796 154.436 26.6574 154.421 26.7294ZM167.965 15.6529C167.965 15.65 167.957 15.6385 167.954 15.6356L167.957 15.6183C167.954 15.6097 167.951 15.5924 167.945 15.5838C167.942 15.5809 167.934 15.5694 167.934 15.5694L167.939 15.555C167.937 15.555 167.928 15.5406 167.928 15.5377V15.5233C167.928 15.5175 167.919 15.506 167.916 15.5031C167.914 15.5002 167.905 15.4858 167.905 15.4858C167.902 15.4801 167.896 15.4714 167.896 15.4657C167.894 15.4628 167.882 15.4513 167.882 15.4484C167.676 15.1892 167.125 15.1028 166.486 15.0538C166.429 14.8263 166.357 14.6132 166.265 14.4001C166.684 14.0142 167.022 13.6196 167.094 13.3143L167.111 13.225C167.111 13.225 167.114 13.2135 167.114 13.2106C167.114 13.2078 167.105 13.1962 167.102 13.1962L167.108 13.179C167.105 13.1703 167.102 13.1444 167.1 13.1329C167.1 13.1214 167.097 13.0954 167.094 13.0868C167.094 13.081 167.088 13.0638 167.085 13.0522C167.082 13.0465 167.074 13.0378 167.074 13.0378C167.062 13.0206 167.048 12.9975 167.039 12.9831C167.036 12.9802 167.031 12.9716 167.028 12.9687L167.031 12.9486C167.025 12.9457 167.008 12.9342 167.005 12.9284C167.002 12.9255 166.993 12.9111 166.993 12.9111C166.988 12.9082 166.971 12.8967 166.965 12.891C166.959 12.8852 166.945 12.8737 166.942 12.8679C166.933 12.865 166.922 12.8535 166.916 12.8478L166.902 12.8449C166.887 12.8391 166.85 12.8247 166.833 12.819C166.827 12.819 166.81 12.8132 166.801 12.8132L166.787 12.8074C166.779 12.8074 166.758 12.8017 166.744 12.7988C166.435 12.7556 165.976 12.9543 165.469 13.2049C165.302 13.0292 165.125 12.865 164.927 12.7182C165.107 12.1422 165.225 11.6238 165.104 11.3214C165.102 11.3185 165.093 11.3041 165.093 11.3041L165.096 11.2868C165.093 11.2839 165.09 11.2724 165.084 11.2695C165.084 11.2638 165.076 11.2551 165.073 11.2522C165.07 11.2494 165.064 11.2378 165.061 11.235C165.047 11.2177 165.027 11.1918 165.013 11.1802C164.998 11.1716 164.976 11.1486 164.958 11.1399L164.944 11.137C164.938 11.1313 164.924 11.1198 164.918 11.114L164.89 11.1111C164.887 11.1054 164.881 11.0938 164.878 11.0938C164.875 11.091 164.855 11.0881 164.849 11.0881L164.818 11.0823C164.812 11.0794 164.795 11.0794 164.789 11.0766C164.783 11.0766 164.763 11.0737 164.758 11.0708L164.715 11.0622C164.703 11.0622 164.677 11.065 164.669 11.0679C164.663 11.0708 164.643 11.0737 164.637 11.0794C164.629 11.0794 164.611 11.0852 164.606 11.0852C164.6 11.0881 164.583 11.0938 164.574 11.0967C164.276 11.209 163.952 11.6065 163.625 12.0846C163.516 12.0529 163.405 12.027 163.293 12.0039C163.173 11.9809 163.066 11.9665 162.955 11.9521C162.826 11.3847 162.665 10.8894 162.427 10.6762C162.416 10.6676 162.393 10.659 162.387 10.6532C162.373 10.6446 162.347 10.6215 162.333 10.6129C162.33 10.61 162.313 10.5956 162.307 10.5927C162.301 10.5927 162.284 10.587 162.278 10.587H162.264C162.258 10.5841 162.241 10.5812 162.238 10.5812C162.232 10.5812 162.215 10.5783 162.207 10.5783L162.195 10.5726C162.189 10.5726 162.169 10.5668 162.166 10.5639L162.152 10.561C162.146 10.5639 162.135 10.5726 162.135 10.5754C162.129 10.5726 162.109 10.5697 162.106 10.5668C162.1 10.5697 162.078 10.5754 162.075 10.5783C162.069 10.5783 162.049 10.5841 162.043 10.587C162.037 10.587 162.017 10.5956 162.012 10.5956C162.009 10.5956 161.994 10.61 161.994 10.61C161.992 10.61 161.977 10.6215 161.977 10.6215C161.974 10.6215 161.963 10.6302 161.96 10.633C161.951 10.6388 161.934 10.6503 161.926 10.6561C161.923 10.6561 161.911 10.6676 161.908 10.6676C161.894 10.6762 161.868 10.7022 161.854 10.7166C161.648 10.9585 161.564 11.4711 161.519 12.05C161.289 12.1105 161.066 12.1911 160.851 12.2862C160.461 11.8513 160.082 11.4999 159.773 11.4366L159.73 11.4279C159.724 11.4279 159.707 11.4222 159.698 11.4222C159.696 11.4222 159.687 11.4193 159.684 11.4193C159.678 11.4222 159.658 11.425 159.652 11.4279C159.641 11.4308 159.615 11.4337 159.607 11.4366C159.601 11.4394 159.581 11.4423 159.575 11.4452C159.572 11.4452 159.564 11.4452 159.564 11.4452C159.538 11.4538 159.501 11.474 159.478 11.4884C159.472 11.4884 159.463 11.497 159.46 11.4999C159.46 11.5028 159.446 11.5086 159.443 11.5143C159.44 11.5143 159.429 11.523 159.429 11.523C159.42 11.5316 159.4 11.5546 159.389 11.5604C159.386 11.5662 159.374 11.5806 159.369 11.5892C159.366 11.5921 159.354 11.6094 159.346 11.6151C159.343 11.6209 159.331 11.6439 159.323 11.6554L159.32 11.6698L159.317 11.6842C159.309 11.6986 159.294 11.7332 159.288 11.7534L159.283 11.7822C159.237 12.0903 159.423 12.5713 159.667 13.0782C159.661 13.081 159.67 13.0897 159.661 13.0926C159.495 13.2567 159.337 13.4324 159.197 13.6254C158.661 13.4583 158.171 13.3402 157.87 13.4266C157.867 13.4295 157.844 13.4353 157.841 13.4382C157.832 13.4382 157.809 13.4439 157.806 13.4468C157.726 13.4814 157.663 13.5476 157.62 13.6225C157.617 13.6254 157.606 13.634 157.603 13.634L157.597 13.6628C157.592 13.683 157.577 13.7118 157.569 13.7348L157.563 13.7636C157.563 13.7665 157.574 13.7809 157.574 13.7838L157.563 13.8442C157.566 13.8442 157.571 13.8586 157.574 13.8586C157.577 13.8817 157.583 13.9162 157.589 13.9393L157.583 13.9537C157.586 13.9623 157.592 13.9767 157.592 13.9882C157.706 14.2849 158.105 14.6161 158.575 14.9415C158.543 15.051 158.517 15.1604 158.494 15.2756C158.472 15.3879 158.457 15.5002 158.446 15.6126C157.844 15.745 157.334 15.9034 157.139 16.1684C157.136 16.1742 157.121 16.1972 157.116 16.2087C157.113 16.2145 157.096 16.2519 157.09 16.2634L157.084 16.3066C157.081 16.3095 157.067 16.321 157.067 16.321L157.061 16.3498C157.061 16.3642 157.064 16.3988 157.064 16.4132L157.058 16.442C157.061 16.4478 157.07 16.4593 157.07 16.4622C157.07 16.4679 157.076 16.4967 157.076 16.5082C157.076 16.514 157.081 16.5342 157.084 16.5428C157.087 16.5457 157.09 16.5687 157.093 16.5716C157.096 16.5745 157.104 16.586 157.104 16.5918C157.104 16.5946 157.113 16.6177 157.116 16.6234C157.119 16.6292 157.124 16.6378 157.127 16.6436C157.127 16.6436 157.136 16.658 157.139 16.658C157.147 16.6666 157.167 16.6868 157.176 16.6954C157.179 16.7012 157.199 16.7127 157.205 16.7156C157.442 16.9287 157.958 17.0209 158.546 17.0698C158.603 17.2945 158.672 17.5249 158.764 17.738C158.337 18.1239 157.99 18.4954 157.921 18.8094L157.915 18.8353C157.915 18.8497 157.915 18.8842 157.918 18.8958C157.918 18.9073 157.918 18.9418 157.918 18.9591L157.913 18.985C157.915 18.9879 157.924 19.0023 157.927 19.0052C157.93 19.011 157.933 19.0282 157.935 19.0369L157.933 19.0513C157.933 19.0513 157.941 19.0686 157.944 19.0714C157.947 19.0743 157.953 19.083 157.956 19.0858C157.956 19.0887 157.964 19.0974 157.967 19.1031L157.961 19.1175C157.967 19.1204 157.973 19.1348 157.976 19.1348C157.978 19.1406 157.981 19.1463 157.987 19.155C157.99 19.155 157.999 19.1694 157.999 19.1694C158.001 19.1722 158.01 19.1694 158.013 19.1722C158.013 19.1722 158.024 19.1866 158.024 19.1924C158.027 19.1953 158.044 19.2068 158.053 19.2126C158.053 19.2154 158.062 19.227 158.064 19.2298C158.067 19.2327 158.076 19.2327 158.079 19.2327C158.085 19.2385 158.107 19.2529 158.119 19.2558C158.122 19.2558 158.13 19.2558 158.133 19.2558C158.139 19.2615 158.156 19.2759 158.159 19.2759L158.176 19.2788C158.182 19.2788 158.202 19.2846 158.205 19.2846L158.219 19.2874C158.228 19.2874 158.242 19.2932 158.248 19.2961C158.56 19.3537 159.042 19.1751 159.564 18.9274C159.733 19.1031 159.922 19.2558 160.123 19.4026C159.936 19.9844 159.807 20.4942 159.928 20.7994C159.931 20.8023 159.939 20.811 159.939 20.8138L159.936 20.8282C159.936 20.8282 159.948 20.8455 159.948 20.8484C159.951 20.8484 159.956 20.8628 159.962 20.8657C159.962 20.8686 159.971 20.8801 159.971 20.8858C159.976 20.8858 159.991 20.8974 159.996 20.9002C160.002 20.906 160.005 20.9175 160.011 20.9204C160.014 20.9233 160.031 20.9377 160.037 20.9406C160.042 20.9434 160.054 20.9578 160.062 20.9607C160.065 20.9665 160.082 20.9809 160.088 20.9838C160.094 20.9866 160.111 21.001 160.114 21.0039L160.128 21.0068C160.131 21.0068 160.14 21.0068 160.143 21.0068C160.148 21.0097 160.166 21.0126 160.171 21.0126L160.26 21.0298C160.266 21.0327 160.286 21.0356 160.289 21.0356C160.295 21.0356 160.315 21.0298 160.32 21.0298C160.326 21.0298 160.343 21.0327 160.349 21.0356C160.349 21.0356 160.361 21.0356 160.363 21.0356C160.372 21.0356 160.386 21.0298 160.392 21.027C160.404 21.027 160.429 21.0126 160.444 21.0068C160.742 20.8887 161.054 20.5028 161.375 20.0334C161.381 20.0334 161.387 20.0334 161.392 20.0362C161.501 20.0679 161.607 20.0938 161.725 20.1169C161.84 20.137 161.951 20.1572 162.066 20.1687C162.192 20.7332 162.347 21.2084 162.579 21.4273C162.588 21.433 162.602 21.4417 162.605 21.4474C162.611 21.4532 162.628 21.4618 162.634 21.4676C162.636 21.4734 162.654 21.482 162.659 21.4906C162.665 21.4935 162.691 21.505 162.702 21.5137C162.705 21.5137 162.725 21.5194 162.731 21.5194C162.734 21.5194 162.743 21.5194 162.745 21.5223L162.777 21.5252C162.783 21.5281 162.797 21.531 162.806 21.531L162.834 21.5338C162.837 21.5338 162.857 21.5396 162.863 21.5396L162.894 21.5454C162.897 21.5454 162.906 21.5454 162.909 21.5454L162.923 21.5482C162.929 21.5482 162.949 21.5425 162.955 21.5396C162.958 21.5396 162.969 21.5454 162.969 21.5454L162.972 21.5281C162.972 21.5281 162.983 21.531 162.986 21.531C163.003 21.5223 163.035 21.5108 163.055 21.4993C163.075 21.4878 163.107 21.4647 163.124 21.4532C163.127 21.4532 163.138 21.4446 163.141 21.4388C163.15 21.4302 163.17 21.41 163.178 21.4014C163.184 21.3956 163.193 21.3783 163.198 21.3754C163.393 21.1249 163.471 20.6353 163.511 20.065C163.749 20.0046 163.975 19.9182 164.196 19.8174C164.571 20.2407 164.924 20.5834 165.233 20.6583C165.245 20.6612 165.265 20.667 165.276 20.667C165.279 20.6698 165.285 20.6698 165.291 20.6698C165.297 20.6698 165.314 20.6756 165.319 20.6756H165.334C165.348 20.6756 165.377 20.6756 165.394 20.6756C165.394 20.6756 165.405 20.6756 165.408 20.6756L165.443 20.667C165.448 20.667 165.466 20.6612 165.474 20.6583C165.48 20.6554 165.5 20.6497 165.506 20.6497C165.512 20.6468 165.537 20.641 165.54 20.6382C165.543 20.6382 165.555 20.6266 165.557 20.6266C165.56 20.6238 165.572 20.6151 165.575 20.6151C165.58 20.6094 165.6 20.5978 165.609 20.5921C165.62 20.5834 165.638 20.5633 165.649 20.5518C165.661 20.5374 165.678 20.5143 165.689 20.4999C165.695 20.4884 165.706 20.4711 165.715 20.4596C165.718 20.4538 165.729 20.4366 165.735 20.4308L165.744 20.3876C165.744 20.3847 165.747 20.3732 165.747 20.3732L165.755 20.3271C165.807 20.0132 165.632 19.5409 165.385 19.0196C165.383 19.0167 165.391 19.011 165.391 19.0081C165.549 18.8497 165.704 18.6711 165.838 18.4839C166.406 18.6625 166.913 18.769 167.217 18.6625C167.223 18.6596 167.246 18.651 167.249 18.651C167.251 18.6481 167.266 18.6423 167.269 18.6423C167.269 18.6366 167.28 18.6337 167.286 18.6308C167.292 18.625 167.303 18.6193 167.303 18.6193C167.306 18.6193 167.317 18.6078 167.317 18.6078C167.323 18.6049 167.335 18.5991 167.335 18.5962C167.337 18.5962 167.352 18.5847 167.355 18.5847C167.358 18.579 167.369 18.5646 167.375 18.5588C167.378 18.5588 167.392 18.5473 167.392 18.5473C167.398 18.5415 167.406 18.5271 167.412 18.5214C167.418 18.5127 167.432 18.4897 167.435 18.4839L167.441 18.4666C167.441 18.4638 167.452 18.4551 167.455 18.4551L167.487 18.2938C167.484 18.2766 167.484 18.2391 167.484 18.2334C167.481 18.2305 167.472 18.219 167.472 18.2132L167.475 18.2017C167.472 18.193 167.469 18.1758 167.469 18.1671C167.466 18.1671 167.455 18.1671 167.452 18.1642C167.452 18.1614 167.455 18.1498 167.455 18.1498V18.1354C167.349 17.8359 166.95 17.5191 166.469 17.1966C166.5 17.0842 166.529 16.9662 166.549 16.8452C166.572 16.73 166.592 16.609 166.604 16.4938C167.188 16.3671 167.69 16.2001 167.891 15.9524C167.896 15.9466 167.908 15.9322 167.911 15.9265L167.914 15.9092C167.916 15.9034 167.928 15.8862 167.934 15.8833C167.942 15.8631 167.957 15.8314 167.965 15.8113L167.971 15.7825C167.974 15.7738 167.98 15.7508 167.98 15.7393L167.991 15.6817C167.988 15.6817 167.98 15.6673 167.98 15.6673L167.965 15.6529ZM162.103 16.969C161.576 16.8654 161.235 16.3527 161.335 15.8257C161.438 15.2986 161.946 14.953 162.473 15.0538C163.001 15.1575 163.342 15.6673 163.238 16.1972C163.138 16.7271 162.628 17.0727 162.103 16.969ZM149.798 7.45641L149.795 7.46505C149.798 7.46793 149.8 7.47656 149.806 7.47944C149.806 7.47944 149.809 7.49385 149.809 7.49961C149.815 7.50249 149.815 7.51689 149.815 7.52265C149.818 7.52841 149.829 7.53417 149.835 7.53417C149.835 7.53993 149.838 7.55145 149.841 7.55721H149.849C149.852 7.55721 149.855 7.56873 149.855 7.56873C149.858 7.56873 149.864 7.56873 149.866 7.56873C149.869 7.57449 149.872 7.58024 149.875 7.58312C149.875 7.58312 149.881 7.59177 149.881 7.59465C149.881 7.59465 149.892 7.59465 149.892 7.59753L149.898 7.60617C150.099 7.74153 150.554 7.77609 151.056 7.80201C151.102 8.02377 151.156 8.25129 151.234 8.46441C150.804 8.76105 150.437 9.03465 150.354 9.25641C150.351 9.26217 150.342 9.27081 150.339 9.27369C150.342 9.27657 150.339 9.28233 150.339 9.28233C150.337 9.29385 150.339 9.31113 150.342 9.32265C150.342 9.32841 150.337 9.33992 150.337 9.3428C150.337 9.34569 150.342 9.35721 150.342 9.36297C150.342 9.36297 150.339 9.3716 150.339 9.37449C150.342 9.37737 150.345 9.39465 150.348 9.39465C150.345 9.39465 150.357 9.40617 150.357 9.40617C150.359 9.41193 150.359 9.42633 150.362 9.42633C150.365 9.42921 150.374 9.43497 150.38 9.44073C150.38 9.44361 150.385 9.44937 150.385 9.45225C150.4 9.46665 150.428 9.48392 150.448 9.49544C150.451 9.49832 150.454 9.50985 150.454 9.50985C150.46 9.51273 150.471 9.51273 150.474 9.51273C150.486 9.51561 150.506 9.51849 150.517 9.52137C150.749 9.57321 151.182 9.48104 151.652 9.35144C151.761 9.53864 151.882 9.71433 152.011 9.88425C151.701 10.2903 151.443 10.6734 151.423 10.9124C151.423 10.9182 151.42 10.9354 151.417 10.9412C151.417 10.9441 151.414 10.9527 151.414 10.9527C151.414 10.9556 151.409 10.9671 151.409 10.9729C151.411 10.9815 151.423 10.9902 151.426 10.9959C151.426 11.0017 151.432 11.0132 151.432 11.0161C151.434 11.0218 151.437 11.0334 151.437 11.0391C151.44 11.0449 151.44 11.0535 151.443 11.0622L151.452 11.0737C151.454 11.0737 151.46 11.0737 151.463 11.0737C151.463 11.0737 151.469 11.0823 151.469 11.0881C151.472 11.0881 151.483 11.091 151.492 11.0938C151.492 11.0938 151.503 11.1054 151.509 11.1082C151.512 11.1082 151.515 11.1169 151.517 11.1169C151.52 11.1169 151.532 11.1226 151.535 11.1226L151.546 11.1255C151.549 11.1255 151.561 11.1255 151.566 11.1284C151.569 11.1313 151.572 11.1313 151.575 11.1313C151.583 11.1313 151.603 11.1399 151.615 11.1399C151.615 11.1399 151.621 11.1399 151.624 11.1399C151.635 11.1399 151.652 11.1399 151.664 11.1399C151.904 11.114 152.283 10.8836 152.687 10.6215C152.85 10.7655 153.028 10.9066 153.209 11.0305C153.048 11.4942 152.913 11.9204 152.951 12.1623C152.948 12.1652 152.956 12.1738 152.959 12.1738C152.962 12.1854 152.968 12.1998 152.971 12.2055C152.974 12.2142 152.974 12.2314 152.977 12.2372C152.977 12.243 152.985 12.2631 152.988 12.2689C152.991 12.2718 152.997 12.2804 152.997 12.2804C152.999 12.2833 153.005 12.2833 153.008 12.2833C153.011 12.2862 153.014 12.2919 153.017 12.2948C153.02 12.2977 153.022 12.3063 153.025 12.3063C153.028 12.3063 153.031 12.3063 153.034 12.3063C153.037 12.3092 153.051 12.3178 153.051 12.3207C153.054 12.3207 153.057 12.3294 153.057 12.3322C153.06 12.3322 153.065 12.3322 153.068 12.3322C153.071 12.3322 153.077 12.3351 153.08 12.3351C153.088 12.338 153.1 12.3466 153.106 12.3524C153.108 12.3524 153.12 12.3524 153.126 12.3553C153.128 12.3553 153.143 12.3495 153.146 12.3495C153.151 12.3495 153.16 12.3553 153.166 12.3553C153.169 12.3553 153.174 12.3582 153.174 12.3582C153.18 12.3582 153.192 12.3524 153.197 12.3524C153.206 12.3495 153.232 12.3438 153.24 12.3409C153.257 12.3351 153.278 12.3322 153.295 12.3236C153.515 12.2055 153.788 11.8772 154.074 11.5201C154.272 11.6065 154.473 11.69 154.682 11.7505C154.671 12.2631 154.682 12.7239 154.802 12.9284C154.802 12.9284 154.808 12.937 154.811 12.9399C154.811 12.9428 154.817 12.9486 154.82 12.9514C154.823 12.9572 154.823 12.9716 154.825 12.9745C154.825 12.9774 154.84 12.9889 154.843 12.9889C154.845 12.9889 154.851 12.9889 154.854 12.9889C154.857 12.9889 154.866 13.0033 154.871 13.0033C154.874 13.0062 154.88 13.0033 154.88 13.0062C154.883 13.009 154.886 13.0148 154.888 13.0177C154.891 13.0177 154.897 13.0206 154.897 13.0206C154.9 13.0206 154.909 13.0206 154.909 13.0206C154.914 13.0234 154.923 13.0234 154.929 13.0234C154.931 13.0234 154.94 13.0263 154.94 13.0263C154.949 13.0292 154.963 13.0321 154.969 13.0321C154.972 13.0321 154.98 13.035 154.98 13.035C154.983 13.035 154.995 13.0292 155.003 13.0292C155.006 13.0234 155.015 13.0206 155.015 13.0206C155.017 13.0206 155.035 13.0148 155.038 13.0148C155.038 13.0148 155.043 13.0148 155.046 13.0148C155.046 13.0148 155.055 13.0177 155.058 13.0177C155.081 13.0033 155.109 12.9745 155.129 12.9601C155.31 12.7988 155.479 12.387 155.654 11.9319C155.869 11.955 156.09 11.9636 156.313 11.9578C156.451 12.4186 156.594 12.842 156.763 13.0206L156.775 13.0234C156.775 13.0263 156.78 13.0234 156.783 13.0263C156.789 13.0321 156.8 13.0465 156.809 13.0522C156.815 13.0551 156.832 13.0666 156.838 13.0695C156.841 13.0724 156.846 13.0782 156.846 13.0839C156.849 13.0839 156.861 13.0839 156.866 13.0868C156.869 13.0897 156.881 13.0897 156.884 13.0897C156.892 13.0926 156.904 13.1041 156.912 13.107C156.915 13.1041 156.929 13.0983 156.932 13.0983C156.935 13.0983 156.941 13.0983 156.941 13.0983C156.947 13.0983 156.961 13.0926 156.964 13.0926C156.967 13.0926 156.981 13.0983 156.984 13.0983C156.99 13.0983 157.001 13.0926 157.007 13.0926L157.018 13.0868C157.024 13.081 157.027 13.0782 157.03 13.0782C157.033 13.0753 157.053 13.0638 157.053 13.0609C157.076 13.0407 157.101 13.0119 157.119 12.9802C157.245 12.7729 157.276 12.338 157.296 11.8455C157.508 11.7994 157.723 11.739 157.924 11.6698C158.199 12.0702 158.463 12.4244 158.675 12.5367C158.678 12.5396 158.681 12.5367 158.687 12.5396C158.692 12.5454 158.701 12.5511 158.704 12.554C158.707 12.5569 158.715 12.5569 158.724 12.5598C158.73 12.5626 158.755 12.5742 158.761 12.577C158.767 12.577 158.781 12.5713 158.784 12.5713C158.795 12.5713 158.807 12.5684 158.815 12.5684C158.824 12.5684 158.841 12.5655 158.847 12.5655C158.853 12.5655 158.864 12.5684 158.867 12.5684C158.87 12.5684 158.881 12.554 158.881 12.5482C158.884 12.5482 158.887 12.5425 158.893 12.5425C158.896 12.5396 158.904 12.5425 158.904 12.5454C158.904 12.5425 158.913 12.5454 158.913 12.5454V12.5367C158.924 12.5252 158.933 12.5108 158.942 12.4993C158.944 12.4964 158.953 12.4935 158.953 12.4935C158.956 12.4878 158.956 12.482 158.956 12.482C158.97 12.459 158.987 12.4273 158.993 12.3956C159.045 12.1594 158.942 11.7217 158.815 11.2522V11.2436C159.008 11.1313 159.194 11.0132 159.369 10.8807L159.372 10.8721C159.372 10.8721 159.38 10.875 159.383 10.875C159.77 11.1745 160.128 11.4394 160.369 11.4769C160.395 11.4826 160.429 11.4855 160.452 11.4826C160.452 11.4826 160.452 11.4711 160.455 11.4711C160.455 11.4711 160.461 11.474 160.464 11.474C160.467 11.474 160.475 11.4654 160.475 11.4654C160.478 11.4654 160.495 11.4596 160.495 11.4596C160.498 11.4596 160.507 11.4596 160.507 11.4596C160.51 11.4596 160.518 11.451 160.518 11.451C160.521 11.451 160.527 11.4538 160.527 11.4538C160.535 11.451 160.538 11.4394 160.541 11.4366C160.544 11.4337 160.553 11.4308 160.553 11.4279C160.555 11.4279 160.558 11.4308 160.561 11.4308C160.564 11.4308 160.576 11.4135 160.576 11.4135C160.578 11.4106 160.578 11.4049 160.578 11.4049L160.587 11.4078C160.59 11.4049 160.59 11.3991 160.59 11.3991C160.59 11.3962 160.59 11.3905 160.59 11.3876C160.593 11.3876 160.601 11.3818 160.601 11.379C160.604 11.3732 160.604 11.3674 160.604 11.3588C160.607 11.353 160.618 11.3358 160.618 11.3329H160.61C160.61 11.33 160.613 11.3214 160.613 11.3214C160.616 11.3098 160.618 11.2954 160.618 11.281C160.618 11.2782 160.621 11.2724 160.621 11.2724C160.624 11.0334 160.389 10.6302 160.103 10.1953C160.24 10.0369 160.366 9.86697 160.487 9.69417H160.495C160.954 9.85833 161.372 9.99081 161.61 9.95625C161.633 9.95049 161.673 9.94761 161.693 9.94185C161.699 9.93897 161.705 9.92457 161.708 9.92457C161.711 9.92457 161.725 9.92169 161.731 9.91881C161.734 9.91593 161.742 9.90153 161.745 9.89865C161.745 9.89865 161.745 9.89289 161.748 9.89289C161.756 9.88425 161.779 9.86697 161.785 9.85833C161.788 9.85833 161.788 9.84968 161.788 9.8468C161.791 9.84393 161.799 9.83529 161.799 9.82953C161.802 9.82665 161.799 9.82089 161.802 9.81801C161.802 9.81513 161.808 9.80361 161.808 9.79785C161.811 9.79209 161.811 9.78345 161.811 9.77769L161.814 9.76905C161.814 9.76329 161.817 9.75177 161.817 9.74889C161.817 9.74313 161.811 9.73161 161.811 9.72873C161.808 9.71721 161.802 9.69129 161.799 9.68553C161.797 9.67401 161.791 9.66249 161.785 9.65097C161.691 9.42633 161.355 9.13257 160.974 8.82441C161.066 8.61993 161.152 8.41833 161.218 8.20233C161.731 8.21385 162.189 8.19369 162.39 8.06409C162.393 8.06409 162.404 8.05833 162.41 8.05833C162.413 8.05833 162.422 8.05257 162.422 8.04969C162.424 8.04969 162.424 8.04105 162.424 8.04105C162.436 8.02953 162.456 8.00649 162.462 7.99785C162.465 7.99497 162.473 7.98057 162.479 7.98057C162.479 7.97481 162.479 7.96329 162.479 7.96041C162.479 7.95753 162.482 7.94601 162.482 7.94025C162.485 7.93449 162.487 7.92297 162.487 7.92009C162.487 7.91721 162.49 7.90281 162.49 7.89993C162.49 7.89417 162.485 7.88265 162.485 7.87689C162.485 7.87401 162.49 7.86249 162.49 7.85673C162.487 7.85385 162.476 7.84521 162.473 7.84521C162.47 7.83945 162.467 7.82505 162.467 7.82217C162.464 7.81929 162.459 7.81353 162.459 7.81065C162.453 7.80201 162.45 7.78761 162.444 7.77897C162.301 7.58313 161.871 7.40456 161.395 7.22312C161.395 7.22312 161.398 7.21449 161.398 7.21161C161.418 7.00137 161.424 6.79113 161.421 6.57801C161.934 6.42537 162.39 6.25833 162.522 6.06248C162.525 6.05961 162.53 6.05097 162.536 6.04521C162.539 6.04233 162.548 6.03945 162.548 6.03657C162.55 6.03369 162.55 6.02505 162.553 6.01641C162.556 6.01065 162.556 5.99049 162.559 5.98473C162.559 5.98185 162.565 5.97033 162.565 5.96457C162.568 5.96169 162.568 5.94729 162.568 5.94441C162.568 5.93865 162.571 5.92713 162.571 5.92425C162.571 5.92137 162.573 5.91561 162.573 5.91561H162.565C162.565 5.91273 162.568 5.90697 162.568 5.90697C162.565 5.90697 162.556 5.90409 162.556 5.90409L162.559 5.89544C162.556 5.89256 162.545 5.87529 162.545 5.87241C162.539 5.86665 162.539 5.85513 162.536 5.84937C162.536 5.84649 162.533 5.84361 162.53 5.84073C162.53 5.83785 162.522 5.83785 162.519 5.83785C162.516 5.83497 162.513 5.82921 162.51 5.82633C162.507 5.82633 162.505 5.8148 162.502 5.8148C162.502 5.81192 162.496 5.81481 162.493 5.81193C162.49 5.80905 162.482 5.80041 162.476 5.79753C162.476 5.79465 162.47 5.78601 162.47 5.78601C162.272 5.65065 161.814 5.61609 161.309 5.59017C161.263 5.36553 161.206 5.138 161.134 4.92776C161.562 4.63112 161.934 4.35753 162.012 4.13289C162.014 4.13001 162.026 4.10985 162.029 4.10409H162.017C162.017 4.10409 162.017 4.09545 162.017 4.09257C162.02 4.08393 162.023 4.0724 162.023 4.06376C162.023 4.06088 162.023 4.05513 162.023 4.05225C162.023 4.04649 162.029 4.03497 162.029 4.03209C162.029 4.02921 162.02 4.02345 162.02 4.02057C162.023 4.02057 162.023 4.01193 162.023 4.01193C162.02 4.00617 162.017 3.99177 162.017 3.98889C162.017 3.98601 162.009 3.97737 162.009 3.97737C162.006 3.97161 162.006 3.95721 162.003 3.95721C162 3.95145 161.986 3.94568 161.986 3.9428C161.986 3.93992 161.98 3.93129 161.98 3.93129C161.98 3.92841 161.974 3.92265 161.971 3.91689C161.957 3.90825 161.934 3.89673 161.917 3.88809C161.917 3.88521 161.911 3.87945 161.908 3.87657C161.903 3.87369 161.894 3.86216 161.891 3.86216C161.88 3.86216 161.851 3.85353 161.842 3.85353C161.605 3.80169 161.18 3.90537 160.713 4.03497C160.604 3.85065 160.487 3.6692 160.355 3.50217C160.664 3.09609 160.922 2.71593 160.942 2.47401C160.942 2.47401 160.942 2.46825 160.942 2.46537C160.945 2.45961 160.945 2.44809 160.948 2.44521C160.948 2.44233 160.951 2.43369 160.951 2.43369C160.951 2.43081 160.954 2.41929 160.954 2.41065C160.954 2.41065 160.948 2.40489 160.948 2.40201C160.945 2.39625 160.942 2.38185 160.942 2.37897C160.942 2.37609 160.937 2.36168 160.937 2.3588C160.934 2.35592 160.928 2.35017 160.928 2.34729C160.925 2.34441 160.922 2.33288 160.922 2.32712C160.919 2.32712 160.914 2.31561 160.911 2.31561C160.911 2.31561 160.902 2.31561 160.899 2.31273C160.899 2.30985 160.902 2.30409 160.902 2.30409C160.902 2.30409 160.897 2.30409 160.894 2.30409C160.888 2.30121 160.871 2.28969 160.865 2.28969C160.865 2.28681 160.856 2.28968 160.854 2.2868C160.851 2.28392 160.848 2.27817 160.848 2.27529C160.845 2.27529 160.836 2.26376 160.831 2.26376C160.828 2.26376 160.822 2.26953 160.819 2.27241C160.819 2.27241 160.813 2.26953 160.811 2.26953C160.805 2.26953 160.799 2.25801 160.793 2.25801C160.785 2.25513 160.765 2.26089 160.75 2.25801H160.742C160.73 2.25801 160.71 2.25801 160.702 2.25801C160.461 2.28393 160.082 2.51433 159.681 2.77929C159.518 2.63241 159.34 2.49416 159.157 2.36744C159.32 1.90376 159.443 1.47465 159.406 1.23273C159.403 1.23273 159.409 1.22697 159.409 1.22409C159.406 1.22121 159.412 1.21544 159.412 1.21544C159.409 1.2068 159.4 1.18953 159.397 1.18089C159.395 1.17225 159.383 1.16361 159.38 1.15785C159.377 1.14921 159.38 1.13481 159.377 1.12329C159.377 1.12041 159.372 1.11752 159.369 1.11176C159.369 1.10888 159.363 1.10025 159.36 1.10025H159.352C159.352 1.09737 159.346 1.08873 159.343 1.08584C159.343 1.08584 159.329 1.07432 159.326 1.07144C159.323 1.06856 159.32 1.06857 159.317 1.06857C159.317 1.06569 159.311 1.05993 159.309 1.05705C159.306 1.05705 159.294 1.04553 159.291 1.04265C159.283 1.03977 159.268 1.03977 159.26 1.03689C159.257 1.03401 159.234 1.03401 159.231 1.03401C159.228 1.03401 159.225 1.03112 159.223 1.03112C159.217 1.03112 159.205 1.03689 159.2 1.03689C159.197 1.03977 159.194 1.03401 159.191 1.03401C159.185 1.03401 159.171 1.03976 159.168 1.03976C159.157 1.04264 159.134 1.04841 159.125 1.05129C159.108 1.05705 159.088 1.06568 159.071 1.07144C158.853 1.18952 158.578 1.51497 158.291 1.87497C158.096 1.78857 157.895 1.71657 157.689 1.65609C157.689 1.65321 157.692 1.64745 157.692 1.64457C157.703 1.16649 157.698 0.725847 157.594 0.506967C157.586 0.495447 157.571 0.472406 157.56 0.460886C157.56 0.460886 157.554 0.452245 157.551 0.449365C157.551 0.446485 157.543 0.446487 157.543 0.446487C157.54 0.440727 157.528 0.426326 157.526 0.423446C157.526 0.420566 157.52 0.409045 157.52 0.409045C157.517 0.409045 157.514 0.397525 157.511 0.397525C157.508 0.394645 157.497 0.394646 157.491 0.391766C157.488 0.388886 157.485 0.383126 157.483 0.380246C157.48 0.380246 157.465 0.380247 157.463 0.374487C157.46 0.374487 157.454 0.374487 157.454 0.374487C157.448 0.371607 157.437 0.371606 157.434 0.368726C157.431 0.368726 157.422 0.368726 157.422 0.368726C157.417 0.365846 157.397 0.362966 157.391 0.360086H157.382C157.379 0.360086 157.368 0.357205 157.362 0.357205C157.356 0.360085 157.351 0.374487 157.348 0.374487C157.345 0.374487 157.334 0.371606 157.328 0.371606L157.319 0.368726C157.316 0.368726 157.316 0.377365 157.316 0.377365C157.313 0.377365 157.311 0.371607 157.308 0.374487C157.285 0.388887 157.256 0.406166 157.236 0.423446C157.053 0.584726 156.881 1.0052 156.709 1.46312C156.494 1.44008 156.273 1.42857 156.049 1.43433C155.912 0.970647 155.76 0.547286 155.591 0.368726C155.588 0.365846 155.582 0.365845 155.579 0.365845C155.571 0.357205 155.553 0.337046 155.545 0.328406C155.542 0.325526 155.531 0.325527 155.525 0.322647C155.522 0.319767 155.519 0.314006 155.516 0.311126C155.513 0.311126 155.502 0.308246 155.499 0.308246C155.496 0.305366 155.488 0.296725 155.482 0.293845C155.476 0.293845 155.459 0.290966 155.453 0.288086C155.447 0.288086 155.436 0.293845 155.43 0.293845C155.427 0.293845 155.422 0.293845 155.422 0.293845C155.416 0.293845 155.407 0.290967 155.402 0.290967C155.399 0.290967 155.384 0.296726 155.379 0.296726C155.376 0.299606 155.364 0.296726 155.356 0.296726C155.356 0.296726 155.347 0.311127 155.344 0.314007C155.341 0.316887 155.327 0.316885 155.324 0.316885C155.318 0.322646 155.316 0.337045 155.31 0.337045C155.29 0.354325 155.267 0.374487 155.247 0.406167C155.121 0.613527 155.089 1.05993 155.066 1.55241C154.854 1.59849 154.639 1.65609 154.438 1.72809C154.163 1.32489 153.902 0.973528 153.687 0.864088C153.682 0.861208 153.667 0.852564 153.659 0.846804C153.656 0.843924 153.636 0.835285 153.633 0.829525C153.624 0.826645 153.61 0.826644 153.604 0.823764C153.599 0.823764 153.587 0.829525 153.581 0.829525C153.57 0.829525 153.553 0.829528 153.538 0.832408C153.533 0.832408 153.524 0.826647 153.518 0.826647C153.515 0.826647 153.515 0.838165 153.515 0.838165C153.513 0.838165 153.498 0.832408 153.495 0.832408C153.492 0.835288 153.487 0.838168 153.484 0.841048C153.481 0.841048 153.475 0.846804 153.472 0.846804L153.461 0.855444C153.458 0.855444 153.45 0.852566 153.45 0.852566C153.447 0.855446 153.441 0.866968 153.435 0.872728C153.429 0.881368 153.412 0.892887 153.406 0.898647C153.406 0.898647 153.409 0.907286 153.404 0.907286C153.401 0.913046 153.395 0.918806 153.392 0.924566C153.384 0.947606 153.372 0.976407 153.366 1.00233C153.315 1.23849 153.409 1.67336 153.533 2.1428C153.535 2.1428 153.541 2.1428 153.541 2.1428V2.15144C153.349 2.26376 153.163 2.38185 152.991 2.51433C152.988 2.51433 152.982 2.51433 152.982 2.51433C152.592 2.21769 152.231 1.96137 151.99 1.92105C151.965 1.91529 151.933 1.91241 151.91 1.91529H151.899C151.896 1.91529 151.89 1.93257 151.884 1.93257C151.882 1.93257 151.87 1.9268 151.864 1.9268L151.853 1.93544C151.85 1.93832 151.847 1.93257 151.844 1.93257C151.841 1.93257 151.833 1.94121 151.833 1.94121C151.824 1.94697 151.813 1.9556 151.81 1.95848C151.807 1.96136 151.81 1.96713 151.807 1.97001C151.807 1.97001 151.801 1.96712 151.798 1.96712C151.798 1.96712 151.79 1.97288 151.787 1.97576C151.784 1.97864 151.775 1.99016 151.773 1.99016C151.77 1.99304 151.77 1.99881 151.77 2.00169C151.767 2.00457 151.758 2.00745 151.758 2.01033C151.755 2.01897 151.755 2.03337 151.753 2.04201C151.75 2.04489 151.741 2.05641 151.738 2.05929C151.738 2.05929 151.735 2.06792 151.735 2.0708H151.744C151.741 2.0852 151.735 2.10824 151.735 2.11976C151.732 2.3588 151.97 2.76201 152.251 3.19689C152.114 3.35529 151.976 3.53096 151.859 3.70376H151.847C151.389 3.54248 150.981 3.41288 150.741 3.44744C150.718 3.44744 150.678 3.45321 150.658 3.45897C150.655 3.46473 150.638 3.47337 150.635 3.47625C150.629 3.47913 150.623 3.48201 150.623 3.48201C150.62 3.48489 150.615 3.49065 150.612 3.49065C150.612 3.49065 150.612 3.49928 150.612 3.50217C150.609 3.50217 150.6 3.50793 150.6 3.50793C150.592 3.51657 150.58 3.52809 150.574 3.53385C150.574 3.53385 150.574 3.54248 150.572 3.54248C150.569 3.54536 150.569 3.55113 150.569 3.55401C150.566 3.55977 150.557 3.56553 150.554 3.57129C150.552 3.57417 150.546 3.57705 150.543 3.57993C150.543 3.58281 150.549 3.60009 150.549 3.60009C150.546 3.60585 150.537 3.61737 150.537 3.61737C150.537 3.62025 150.543 3.62889 150.543 3.62889C150.543 3.63465 150.54 3.64617 150.54 3.64905C150.54 3.65481 150.546 3.66633 150.546 3.67209C150.546 3.68073 150.557 3.69801 150.557 3.70665C150.563 3.71817 150.566 3.73833 150.572 3.74985C150.666 3.97449 151.002 4.27113 151.38 4.57641C151.291 4.78089 151.202 4.9796 151.139 5.19848C150.635 5.18696 150.17 5.20713 149.967 5.32809C149.964 5.33097 149.944 5.34249 149.941 5.34537C149.941 5.34537 149.932 5.35113 149.932 5.35401C149.929 5.35401 149.929 5.36553 149.929 5.36553C149.929 5.36553 149.921 5.36265 149.918 5.36265C149.907 5.37417 149.898 5.39433 149.892 5.40873C149.889 5.40873 149.881 5.41448 149.881 5.41448C149.878 5.42024 149.864 5.43753 149.864 5.44329C149.864 5.44617 149.872 5.45192 149.872 5.4548C149.872 5.46056 149.869 5.48072 149.866 5.48649C149.866 5.48649 149.861 5.50377 149.861 5.50665C149.861 5.51241 149.866 5.52392 149.866 5.5268C149.866 5.52968 149.864 5.53545 149.864 5.53833C149.866 5.54121 149.878 5.55849 149.878 5.56137C149.884 5.57001 149.878 5.58153 149.884 5.59305C149.889 5.60457 149.901 5.61897 149.909 5.62761C150.05 5.81769 150.48 5.99913 150.956 6.18057L150.953 6.18921C150.933 6.39657 150.918 6.60681 150.924 6.81993C150.411 6.97257 149.955 7.1396 149.823 7.33544C149.821 7.34408 149.812 7.35849 149.809 7.36425C149.806 7.37001 149.806 7.37865 149.806 7.38441C149.803 7.38729 149.795 7.39593 149.792 7.3988C149.792 7.40456 149.798 7.41609 149.798 7.42185C149.798 7.42761 149.786 7.43624 149.783 7.43912C149.795 7.442 149.798 7.45353 149.798 7.45641ZM154.785 6.41673C154.934 5.64489 155.688 5.13513 156.456 5.28201C157.176 5.42313 157.666 6.09129 157.6 6.81129C157.597 6.86025 157.58 6.91209 157.571 6.96105C157.422 7.73289 156.683 8.23689 155.912 8.08425C155.146 7.93737 154.636 7.18857 154.785 6.41673ZM175.257 13.7607C175.255 13.7463 175.246 13.7175 175.246 13.7146C175.243 13.7146 175.235 13.706 175.235 13.706V13.6945C175.229 13.6887 175.223 13.6743 175.223 13.6714C175.223 13.6714 175.212 13.6743 175.212 13.6714C175.209 13.6714 175.209 13.6628 175.209 13.6599V13.6513C175.071 13.4468 174.716 13.2884 174.294 13.1358C174.297 13.0465 174.297 12.9514 174.291 12.8564C174.286 12.7671 174.277 12.6721 174.266 12.5828C174.678 12.3754 175.022 12.1594 175.126 11.9319C175.128 11.929 175.134 11.9146 175.134 11.9089V11.8974C175.137 11.8916 175.14 11.8772 175.146 11.8714C175.151 11.8542 175.151 11.8311 175.154 11.8138L175.151 11.7908C175.151 11.7822 175.151 11.7649 175.149 11.7562L175.146 11.7102C175.146 11.7073 175.137 11.7015 175.134 11.6986V11.6871C175.134 11.6842 175.123 11.6785 175.12 11.6756V11.6641C175.114 11.6583 175.108 11.6439 175.106 11.641C175.103 11.6382 175.094 11.6324 175.094 11.6324V11.6209C175.091 11.6209 175.083 11.6122 175.083 11.6094V11.6007C175.08 11.5978 175.071 11.5921 175.068 11.5892C175.065 11.5892 175.057 11.5777 175.057 11.5777C175.054 11.5777 175.045 11.569 175.045 11.5662C175.042 11.5662 175.034 11.5575 175.034 11.5575C174.83 11.402 174.403 11.4423 173.916 11.5258C173.833 11.3674 173.738 11.2234 173.629 11.0794C173.867 10.7108 174.048 10.3537 174.048 10.1089L174.045 10.0398C174.042 10.0398 174.042 10.0311 174.042 10.0282C174.039 10.0282 174.031 10.0196 174.031 10.0196L174.028 10.0081C174.025 9.99945 174.019 9.98217 174.013 9.97353C174.011 9.96489 174.005 9.94473 174.002 9.93897C174.002 9.93321 173.993 9.92169 173.991 9.91593C173.985 9.91305 173.979 9.90729 173.979 9.90729C173.968 9.89865 173.95 9.88137 173.942 9.87273C173.939 9.86985 173.93 9.86409 173.93 9.86409V9.84969C173.925 9.84969 173.91 9.84105 173.907 9.84105C173.905 9.83817 173.896 9.83241 173.896 9.82953C173.89 9.82665 173.876 9.82089 173.87 9.81801C173.867 9.81801 173.853 9.80937 173.85 9.80649C173.844 9.80649 173.83 9.80073 173.824 9.79785H173.813C173.801 9.79785 173.77 9.79497 173.758 9.79209C173.755 9.79209 173.741 9.79209 173.735 9.79209H173.724C173.715 9.79209 173.698 9.79497 173.69 9.79497C173.446 9.82089 173.142 10.057 172.81 10.3393C172.652 10.2385 172.488 10.1492 172.314 10.0772C172.342 9.61353 172.334 9.20169 172.185 9.00009C172.182 8.99721 172.173 8.98857 172.173 8.98857V8.97705C172.17 8.97705 172.165 8.96841 172.159 8.96553C172.156 8.96265 172.15 8.95689 172.147 8.95401C172.145 8.95113 172.136 8.94537 172.136 8.94537C172.122 8.93673 172.102 8.91945 172.087 8.91369C172.073 8.90793 172.056 8.89929 172.041 8.89353H172.03C172.024 8.89065 172.01 8.88489 172.007 8.88201H171.984C171.981 8.88201 171.973 8.87337 171.97 8.87337C171.967 8.87337 171.952 8.87337 171.947 8.87337L171.924 8.87625C171.918 8.87625 171.907 8.87625 171.901 8.87625C171.898 8.87625 171.881 8.87912 171.878 8.87912L171.844 8.88201C171.832 8.88489 171.815 8.89065 171.809 8.89641C171.806 8.89929 171.789 8.90504 171.789 8.9108C171.783 8.9108 171.772 8.91945 171.766 8.92233C171.763 8.92233 171.752 8.93097 171.743 8.93385C171.543 9.07497 171.373 9.43209 171.222 9.84969C171.133 9.84681 171.044 9.84969 170.955 9.85257C170.863 9.85833 170.78 9.86697 170.691 9.87848C170.488 9.47817 170.276 9.13833 170.058 9.02601C170.046 9.02313 170.029 9.01737 170.023 9.01737C170.012 9.01449 169.986 9.00009 169.975 8.99721C169.972 8.99721 169.957 8.98857 169.952 8.98857C169.946 8.98857 169.934 8.98569 169.929 8.98857H169.917C169.912 8.98857 169.897 8.99145 169.894 8.98857C169.891 8.99145 169.877 8.99144 169.871 8.99144H169.86C169.854 8.99144 169.84 8.99144 169.837 8.99144H169.826C169.826 8.99432 169.817 9.00585 169.817 9.00585H169.794C169.791 9.00873 169.777 9.01737 169.771 9.02025C169.765 9.02313 169.754 9.02888 169.748 9.03176C169.745 9.03464 169.731 9.04329 169.725 9.04329C169.725 9.04617 169.714 9.05769 169.714 9.05769C169.714 9.05769 169.705 9.06921 169.705 9.07209C169.702 9.07497 169.694 9.08073 169.694 9.08073C169.688 9.08937 169.679 9.10089 169.674 9.10665C169.671 9.10665 169.662 9.11817 169.662 9.11817C169.654 9.12681 169.639 9.15273 169.631 9.16712C169.522 9.386 169.556 9.78633 169.631 10.227C169.473 10.3134 169.318 10.417 169.178 10.5294C168.805 10.2788 168.455 10.0858 168.212 10.0974L168.177 10.1002C168.174 10.1002 168.16 10.1002 168.154 10.1002C168.152 10.1002 168.143 10.1002 168.143 10.1002C168.137 10.1031 168.126 10.1089 168.12 10.1118C168.111 10.1146 168.094 10.1233 168.088 10.1262C168.086 10.1262 168.071 10.1377 168.068 10.1377C168.066 10.1377 168.057 10.1377 168.057 10.1377C168.04 10.1492 168.017 10.1751 168.002 10.1895C167.997 10.1924 167.991 10.1982 167.991 10.201C167.991 10.201 167.982 10.2126 167.98 10.2154C167.977 10.2154 167.968 10.2241 167.968 10.2241C167.965 10.2327 167.954 10.25 167.945 10.2586C167.942 10.2644 167.939 10.2788 167.937 10.2817C167.934 10.2874 167.931 10.299 167.925 10.3076C167.925 10.3134 167.919 10.3335 167.919 10.3422C167.916 10.345 167.919 10.3566 167.919 10.3566V10.3681C167.916 10.3825 167.911 10.4055 167.911 10.4257L167.914 10.4487C167.937 10.6878 168.166 11.0103 168.444 11.3415C168.441 11.3444 168.447 11.353 168.444 11.353C168.349 11.5086 168.263 11.6698 168.197 11.8398C167.765 11.8167 167.378 11.8196 167.168 11.9434C167.165 11.9434 167.154 11.9521 167.145 11.955C167.143 11.955 167.128 11.9636 167.125 11.9665C167.071 12.0097 167.036 12.0673 167.019 12.1335C167.016 12.1393 167.008 12.145 167.008 12.145V12.1681C167.008 12.1825 167.002 12.2084 167.002 12.2257V12.2487L167.014 12.2602L167.016 12.3063C167.019 12.3063 167.028 12.3178 167.028 12.3178C167.034 12.3322 167.045 12.3582 167.054 12.3754C167.054 12.3754 167.054 12.3841 167.057 12.387C167.059 12.3927 167.068 12.4042 167.068 12.41C167.208 12.6116 167.567 12.7844 167.982 12.9342C167.98 13.0206 167.98 13.1098 167.985 13.1991C167.988 13.2884 167.997 13.3748 168.008 13.4612C167.584 13.6743 167.231 13.8903 167.137 14.1236C167.137 14.1294 167.131 14.1495 167.128 14.1582C167.128 14.1639 167.122 14.1956 167.12 14.2042V14.2388C167.12 14.2388 167.111 14.2503 167.108 14.2503L167.111 14.2734C167.114 14.282 167.12 14.3079 167.125 14.3194V14.3396C167.128 14.3425 167.134 14.3482 167.137 14.3511C167.14 14.3569 167.148 14.377 167.151 14.3857C167.154 14.3886 167.163 14.403 167.163 14.4058C167.165 14.4116 167.174 14.426 167.177 14.4289C167.18 14.4289 167.186 14.4375 167.188 14.4404C167.191 14.4462 167.2 14.4577 167.203 14.4634C167.206 14.4663 167.211 14.475 167.214 14.475C167.214 14.4778 167.223 14.4836 167.226 14.4865C167.231 14.4894 167.251 14.5009 167.26 14.5066C167.263 14.5095 167.277 14.5153 167.286 14.5182C167.501 14.6305 167.905 14.6017 168.352 14.5268C168.438 14.6852 168.533 14.8436 168.642 14.9847C168.395 15.3534 168.203 15.6961 168.212 15.9438V15.9639C168.215 15.9754 168.22 15.9985 168.226 16.01C168.229 16.0215 168.235 16.0446 168.24 16.0561L168.243 16.0791C168.246 16.0791 168.255 16.0906 168.255 16.0906C168.258 16.0935 168.263 16.1079 168.269 16.1137V16.1252C168.269 16.1252 168.278 16.1367 168.281 16.1367C168.283 16.1396 168.292 16.1454 168.292 16.1454C168.295 16.1482 168.301 16.1569 168.303 16.1569L168.306 16.1684C168.309 16.1684 168.318 16.177 168.318 16.1799C168.321 16.1799 168.324 16.1886 168.329 16.1914C168.332 16.1914 168.341 16.2001 168.341 16.2001C168.344 16.203 168.349 16.2001 168.352 16.2001C168.352 16.203 168.364 16.2087 168.364 16.2087C168.367 16.2087 168.384 16.2174 168.387 16.2174C168.387 16.2202 168.398 16.2289 168.401 16.2289C168.401 16.2289 168.41 16.2289 168.412 16.2289C168.418 16.2318 168.438 16.2375 168.447 16.2375C168.447 16.2375 168.455 16.2375 168.458 16.2375C168.464 16.2375 168.478 16.2462 168.478 16.2462H168.493C168.496 16.2462 168.51 16.2433 168.513 16.2433H168.524C168.53 16.2433 168.541 16.2433 168.547 16.2433C168.791 16.226 169.118 16.0042 169.462 15.7191C169.619 15.8199 169.791 15.8977 169.969 15.9668C169.94 16.4362 169.937 16.8423 170.086 17.0468C170.086 17.0468 170.095 17.0526 170.098 17.0583V17.0698C170.098 17.0698 170.109 17.0785 170.109 17.0814C170.112 17.0814 170.118 17.0871 170.124 17.09C170.127 17.09 170.132 17.0986 170.132 17.1015C170.138 17.1044 170.152 17.1102 170.158 17.1102C170.161 17.113 170.17 17.1217 170.17 17.1246C170.172 17.1246 170.19 17.1332 170.195 17.1332C170.198 17.1361 170.213 17.1418 170.218 17.1447C170.221 17.1447 170.238 17.1505 170.241 17.1562C170.244 17.1562 170.258 17.1649 170.264 17.1649H170.278L170.287 17.162C170.293 17.162 170.307 17.162 170.31 17.162L170.379 17.1591C170.385 17.1591 170.399 17.1591 170.402 17.1591C170.405 17.1562 170.419 17.1505 170.422 17.1476C170.428 17.1476 170.442 17.1476 170.445 17.1476C170.445 17.1476 170.453 17.1447 170.456 17.1447C170.459 17.1418 170.471 17.1361 170.479 17.1332C170.488 17.1274 170.502 17.113 170.513 17.1102C170.714 16.9633 170.875 16.6177 171.027 16.2058C171.029 16.203 171.035 16.203 171.038 16.203C171.127 16.2058 171.213 16.2058 171.302 16.2001C171.391 16.1943 171.479 16.1886 171.565 16.1742C171.766 16.5716 171.973 16.8999 172.188 17.018C172.193 17.0209 172.205 17.0266 172.21 17.0266C172.216 17.0295 172.228 17.0353 172.233 17.0382C172.233 17.0382 172.251 17.0439 172.256 17.0468C172.265 17.0468 172.282 17.0526 172.291 17.0554C172.294 17.0554 172.311 17.0526 172.314 17.0526C172.317 17.0526 172.322 17.0526 172.325 17.0526L172.348 17.0497C172.354 17.0497 172.365 17.0497 172.371 17.0497H172.394C172.397 17.0497 172.414 17.0497 172.417 17.0497L172.437 17.0468C172.44 17.0468 172.445 17.0468 172.448 17.0468H172.46C172.466 17.0439 172.477 17.0382 172.483 17.0324C172.483 17.0324 172.491 17.0324 172.494 17.0324V17.0209C172.494 17.0209 172.503 17.0209 172.506 17.0209C172.517 17.0094 172.54 16.995 172.549 16.9863C172.563 16.9719 172.583 16.9489 172.592 16.9374C172.595 16.9374 172.603 16.9287 172.603 16.9258C172.609 16.9172 172.617 16.897 172.623 16.8913C172.626 16.8855 172.632 16.8711 172.632 16.8654C172.735 16.6407 172.698 16.2606 172.623 15.8286C172.789 15.7422 172.941 15.6298 173.088 15.5146C173.449 15.7594 173.776 15.9495 174.019 15.9466C174.028 15.9466 174.045 15.9466 174.054 15.9438C174.056 15.9438 174.062 15.9438 174.065 15.9438C174.068 15.9438 174.085 15.9438 174.088 15.9438H174.099C174.111 15.9409 174.134 15.9322 174.142 15.9322C174.142 15.9322 174.151 15.9294 174.154 15.9294L174.177 15.9178C174.18 15.915 174.194 15.9063 174.2 15.9063C174.203 15.9034 174.217 15.8948 174.22 15.8919C174.223 15.889 174.243 15.8833 174.246 15.8804C174.248 15.8775 174.254 15.8689 174.254 15.8689C174.257 15.866 174.266 15.8574 174.266 15.8574C174.271 15.8516 174.283 15.8372 174.286 15.8314C174.291 15.8257 174.3 15.8055 174.306 15.7969C174.314 15.7825 174.323 15.7623 174.329 15.7508C174.332 15.7422 174.337 15.7249 174.337 15.7134C174.34 15.7105 174.346 15.6932 174.349 15.6903L174.346 15.6529C174.346 15.6529 174.343 15.6442 174.346 15.6442L174.343 15.6097C174.323 15.3678 174.105 15.0452 173.824 14.7025C173.819 14.6996 173.824 14.6938 173.824 14.691C173.913 14.5441 173.996 14.3799 174.059 14.2158C174.515 14.2417 174.916 14.2273 175.123 14.089C175.128 14.089 175.14 14.0775 175.146 14.0775C175.146 14.0775 175.157 14.0689 175.157 14.066C175.157 14.066 175.166 14.0545 175.169 14.0545C175.169 14.0516 175.177 14.043 175.18 14.043C175.18 14.0401 175.189 14.0314 175.189 14.0286C175.192 14.0286 175.2 14.0199 175.2 14.017C175.203 14.0142 175.212 14.0055 175.212 14.0026C175.214 13.9998 175.22 13.9882 175.223 13.9796C175.223 13.9796 175.232 13.9681 175.235 13.9681C175.235 13.9623 175.243 13.9479 175.246 13.945C175.246 13.9364 175.252 13.9191 175.255 13.9105V13.899C175.255 13.8961 175.26 13.8874 175.26 13.8874L175.257 13.7607ZM170.998 13.7866C170.588 13.8097 170.235 13.49 170.21 13.0753C170.187 12.6634 170.502 12.3092 170.915 12.2862C171.325 12.2631 171.68 12.5799 171.703 12.9946C171.726 13.4065 171.411 13.7607 170.998 13.7866Z" fill="white"/>
</g>
<defs>
<clipPath id="clip0_2279_1792">
<rect width="176" height="36" fill="white"/>
</clipPath>
</defs>
</svg>
